<svg width="23" height="23" viewBox="0 0 25 25" fill="none" xmlns="http://www.w3.org/2000/svg">
<path d="M18.6001 4.62988H15.2114C15.0966 3.99443 14.7621 3.4195 14.2666 3.00548C13.771 2.59146 13.1458 2.36465 12.5 2.36465C11.8542 2.36465 11.229 2.59146 10.7334 3.00548C10.2379 3.4195 9.90345 3.99443 9.78857 4.62988H6.49756C5.78717 4.6313 5.10628 4.91413 4.60396 5.41646C4.10163 5.91878 3.8188 6.59967 3.81738 7.31006V8.1958C3.81738 8.26852 3.8317 8.34052 3.85953 8.4077C3.88736 8.47488 3.92814 8.53592 3.97956 8.58733C4.03098 8.63875 4.09202 8.67954 4.1592 8.70736C4.22638 8.73519 4.29838 8.74951 4.37109 8.74951H5.61084L6.08008 21.8354C6.08526 21.9787 6.14581 22.1144 6.24899 22.2139C6.35217 22.3135 6.48994 22.3691 6.6333 22.3691H18.4644C18.6077 22.3691 18.7455 22.3135 18.8487 22.2139C18.9518 22.1144 19.0124 21.9787 19.0176 21.8354L19.4868 8.74951H20.7266C20.8734 8.74951 21.0143 8.69117 21.1181 8.58733C21.2219 8.48349 21.2803 8.34265 21.2803 8.1958V7.31006C21.2789 6.59967 20.996 5.91878 20.4937 5.41646C19.9914 4.91413 19.3105 4.6313 18.6001 4.62988V4.62988ZM12.5 3.47119C12.8516 3.4716 13.1938 3.58421 13.477 3.79261C13.7601 4.00101 13.9693 4.29433 14.0742 4.62988H10.9258C11.0307 4.29433 11.2399 4.00101 11.523 3.79261C11.8062 3.58421 12.1484 3.4716 12.5 3.47119V3.47119ZM17.9302 21.2603H7.16748L6.71875 8.74951H18.3789L17.9302 21.2603ZM20.1729 7.64209H4.9248V7.31006C4.92532 6.8931 5.09119 6.49336 5.38602 6.19852C5.68086 5.90369 6.0806 5.73782 6.49756 5.7373H18.6001C19.0171 5.73782 19.4168 5.90369 19.7116 6.19852C20.0065 6.49336 20.1723 6.8931 20.1729 7.31006V7.64209Z" fill="#262626"/>
<path d="M12.459 19.3066C12.6058 19.3066 12.7467 19.2483 12.8505 19.1445C12.9544 19.0406 13.0127 18.8998 13.0127 18.7529V10.7534C13.0149 10.6794 13.0022 10.6056 12.9754 10.5365C12.9486 10.4675 12.9081 10.4045 12.8565 10.3513C12.8049 10.2981 12.7432 10.2559 12.6749 10.227C12.6067 10.1981 12.5333 10.1833 12.4592 10.1833C12.3851 10.1833 12.3118 10.1981 12.2435 10.227C12.1753 10.2559 12.1135 10.2981 12.0619 10.3513C12.0103 10.4045 11.9699 10.4675 11.9431 10.5365C11.9162 10.6056 11.9036 10.6794 11.9058 10.7534V18.7529C11.9058 18.8997 11.964 19.0405 12.0678 19.1443C12.1715 19.2481 12.3122 19.3065 12.459 19.3066V19.3066Z" fill="#262626"/>
<path d="M15.2271 19.3066C15.3738 19.3065 15.5145 19.2481 15.6183 19.1443C15.722 19.0405 15.7803 18.8997 15.7803 18.7529V10.7534C15.7825 10.6794 15.7698 10.6056 15.743 10.5365C15.7161 10.4675 15.6757 10.4045 15.6241 10.3513C15.5725 10.2981 15.5107 10.2559 15.4425 10.227C15.3742 10.1981 15.3009 10.1833 15.2268 10.1833C15.1527 10.1833 15.0794 10.1981 15.0111 10.227C14.9429 10.2559 14.8811 10.2981 14.8295 10.3513C14.7779 10.4045 14.7375 10.4675 14.7107 10.5365C14.6838 10.6056 14.6711 10.6794 14.6733 10.7534V18.7529C14.6733 18.8998 14.7317 19.0406 14.8355 19.1445C14.9394 19.2483 15.0802 19.3066 15.2271 19.3066V19.3066Z" fill="#262626"/>
<path d="M9.73535 19.3066C9.88221 19.3066 10.023 19.2483 10.1269 19.1445C10.2307 19.0406 10.2891 18.8998 10.2891 18.7529V10.7534C10.2891 10.6066 10.2307 10.4657 10.1269 10.3619C10.023 10.258 9.88221 10.1997 9.73535 10.1997C9.5885 10.1997 9.44766 10.258 9.34382 10.3619C9.23998 10.4657 9.18164 10.6066 9.18164 10.7534V18.7529C9.18164 18.8998 9.23998 19.0406 9.34382 19.1445C9.44766 19.2483 9.5885 19.3066 9.73535 19.3066V19.3066Z" fill="#262626"/>
</svg>
